<svg width="1280" height="800" viewBox="0 0 1280 800" xmlns="http://www.w3.org/2000/svg">
  <rect width="1280" height="800" fill="#fffdf8"/>
  <text x="96" y="105" font-family="Arial, sans-serif" font-size="40" font-weight="700" fill="#183a4a">从 LLM 到 Agent 的能力跃迁</text>
  <text x="98" y="150" font-family="Arial, sans-serif" font-size="24" fill="#4f6f78">课程第一课时先建立边界：能力越强，Harness 约束越重要</text>
  <g transform="translate(150 610)">
    <rect x="0" y="-110" width="190" height="110" rx="8" fill="#eef7f3" stroke="#183a4a" stroke-width="3"/>
    <rect x="230" y="-190" width="190" height="190" rx="8" fill="#eef7f3" stroke="#183a4a" stroke-width="3"/>
    <rect x="460" y="-290" width="190" height="290" rx="8" fill="#183a4a"/>
    <rect x="690" y="-390" width="190" height="390" rx="8" fill="#eef7f3" stroke="#183a4a" stroke-width="3"/>
    <g font-family="Arial, sans-serif" text-anchor="middle">
      <text x="95" y="-62" font-size="28" font-weight="700" fill="#183a4a">LLM</text>
      <text x="95" y="-30" font-size="20" fill="#4f6f78">文本生成</text>
      <text x="325" y="-115" font-size="26" font-weight="700" fill="#183a4a">LLM + Tools</text>
      <text x="325" y="-78" font-size="20" fill="#4f6f78">函数调用</text>
      <text x="555" y="-170" font-size="30" font-weight="700" fill="#fffdf8">Agent</text>
      <text x="555" y="-130" font-size="20" fill="#eef7f3">多步执行</text>
      <text x="785" y="-230" font-size="26" font-weight="700" fill="#183a4a">Multi-Agent</text>
      <text x="785" y="-192" font-size="20" fill="#4f6f78">协作分工</text>
    </g>
  </g>
  <g stroke="#d8894f" stroke-width="5" fill="none" stroke-linecap="round" stroke-linejoin="round">
    <path d="M1040 570C1000 450 1020 320 1100 210"/>
    <path d="M1097 210L1104 248M1100 210L1065 225"/>
  </g>
  <text x="925" y="645" font-family="Arial, sans-serif" font-size="24" font-weight="700" fill="#183a4a">核心变化</text>
  <text x="925" y="682" font-family="Arial, sans-serif" font-size="22" fill="#4f6f78">从被动回答到目标驱动执行</text>
</svg>
