<svg width="1280" height="800" viewBox="0 0 1280 800" xmlns="http://www.w3.org/2000/svg">
  <rect width="1280" height="800" fill="#fffdf8"/>
  <text x="96" y="105" font-family="Arial, sans-serif" font-size="40" font-weight="700" fill="#183a4a">框架选型看设计哲学</text>
  <text x="98" y="150" font-family="Arial, sans-serif" font-size="24" fill="#4f6f78">同样是 Agent，不同框架优化的工程问题不同</text>
  <g font-family="Arial, sans-serif">
    <g transform="translate(105 235)">
      <rect width="320" height="340" rx="8" fill="#183a4a"/>
      <text x="32" y="62" font-size="32" font-weight="700" fill="#fffdf8">Hermes Agent</text>
      <text x="32" y="112" font-size="23" fill="#eef7f3">工具优先 · 技能驱动</text>
      <line x1="32" y1="145" x2="288" y2="145" stroke="#d8894f" stroke-width="4"/>
      <text x="32" y="195" font-size="22" fill="#fffdf8">Toolset</text>
      <text x="32" y="238" font-size="22" fill="#fffdf8">SKILL.md</text>
      <text x="32" y="281" font-size="22" fill="#fffdf8">Memory tools</text>
    </g>
    <g transform="translate(480 235)">
      <rect width="320" height="340" rx="8" fill="#eef7f3" stroke="#183a4a" stroke-width="4"/>
      <text x="32" y="62" font-size="32" font-weight="700" fill="#183a4a">LangChain</text>
      <text x="32" y="112" font-size="23" fill="#4f6f78">可组合 · 状态图</text>
      <line x1="32" y1="145" x2="288" y2="145" stroke="#d8894f" stroke-width="4"/>
      <text x="32" y="195" font-size="22" fill="#183a4a">LCEL Runnable</text>
      <text x="32" y="238" font-size="22" fill="#183a4a">LangGraph</text>
      <text x="32" y="281" font-size="22" fill="#183a4a">Checkpoint</text>
    </g>
    <g transform="translate(855 235)">
      <rect width="320" height="340" rx="8" fill="#fffdf8" stroke="#183a4a" stroke-width="4"/>
      <text x="32" y="62" font-size="32" font-weight="700" fill="#183a4a">CrewAI</text>
      <text x="32" y="112" font-size="23" fill="#4f6f78">角色协作 · 任务编排</text>
      <line x1="32" y1="145" x2="288" y2="145" stroke="#d8894f" stroke-width="4"/>
      <text x="32" y="195" font-size="22" fill="#183a4a">Agent</text>
      <text x="32" y="238" font-size="22" fill="#183a4a">Task / Crew</text>
      <text x="32" y="281" font-size="22" fill="#183a4a">Flow + Memory</text>
    </g>
  </g>
  <text x="96" y="690" font-family="Arial, sans-serif" font-size="24" font-weight="700" fill="#183a4a">选型提示：</text>
  <text x="220" y="690" font-family="Arial, sans-serif" font-size="24" fill="#4f6f78">自动化偏工具，复杂状态偏图，团队协作偏角色。</text>
</svg>
